<?xml version="1.0" encoding="utf-8"?>
<!-- Generator: Adobe Illustrator 21.0.2, SVG Export Plug-In . SVG Version: 6.00 Build 0)  -->
<svg version="1.1" id="Default" xmlns="http://www.w3.org/2000/svg" xmlns:xlink="http://www.w3.org/1999/xlink" x="0px" y="0px"
	 viewBox="0 0 3000 2000" style="enable-background:new 0 0 3000 2000;" xml:space="preserve">
<style type="text/css">
	.st0{fill:none;stroke:#070809;stroke-width:5;stroke-linecap:round;stroke-linejoin:round;}
	.st1{fill:none;stroke:#070809;stroke-width:2;stroke-linecap:round;stroke-linejoin:round;}
	.st2{fill:none;stroke:#070809;stroke-width:3;stroke-linecap:round;stroke-linejoin:round;}
</style>
<line class="st0" x1="2085" y1="472.2" x2="1913.4" y2="412.7"/>
<line class="st0" x1="1913.4" y1="412.7" x2="1885.8" y2="413.4"/>
<line class="st0" x1="2085" y1="472.2" x2="1861.4" y2="1698.4"/>
<line class="st1" x1="1913.4" y1="412.7" x2="1627.5" y2="1999.9"/>
<line class="st0" x1="1885.8" y1="413.4" x2="1600.5" y2="1999.9"/>
<line class="st0" x1="2747.6" y1="1999.9" x2="3000" y2="1492.2"/>
<line class="st1" x1="2811.9" y1="1999.9" x2="3000" y2="1617"/>
<line class="st0" x1="3000" y1="1961.5" x2="2981.7" y2="1999.9"/>
<line class="st1" x1="2963.5" y1="998.5" x2="2571.6" y2="1935.7"/>
<line class="st0" x1="2963.5" y1="998.5" x2="2917.9" y2="993.2"/>
<line class="st0" x1="2917.9" y1="993.2" x2="2558.5" y2="1846.6"/>
<line class="st0" x1="3000" y1="1043.5" x2="2963.5" y2="998.5"/>
<line class="st0" x1="3000" y1="1282.8" x2="2707.1" y2="1999.9"/>
<line class="st0" x1="2248.2" y1="579.5" x2="2283.1" y2="580.4"/>
<line class="st0" x1="2431.2" y1="659.1" x2="2283.1" y2="580.4"/>
<line class="st0" x1="2158" y1="1708.1" x2="2431.2" y2="659.1"/>
<line class="st1" x1="2283.1" y1="580.4" x2="1976.1" y2="1752.6"/>
<line class="st0" x1="2248.2" y1="579.5" x2="1937.6" y2="1764.5"/>
<line class="st0" x1="2771.6" y1="864.6" x2="2646" y2="761.9"/>
<line class="st0" x1="2646" y1="761.9" x2="2605.3" y2="759.1"/>
<line class="st0" x1="2771.6" y1="864.6" x2="2452.1" y2="1809.8"/>
<line class="st1" x1="2646" y1="761.9" x2="2303.8" y2="1758.5"/>
<line class="st0" x1="2605.3" y1="759.1" x2="2259.9" y2="1760.7"/>
<line class="st0" x1="1861.4" y1="1698.4" x2="1763.3" y2="1726.7"/>
<line class="st2" x1="1763.3" y1="1726.7" x2="1861.4" y2="1765.5"/>
<line class="st2" x1="1861.4" y1="1765.5" x2="1943.9" y2="1740.4"/>
<line class="st0" x1="1877.3" y1="1611" x2="1969.5" y2="1642.9"/>
<line class="st0" x1="1661" y1="1663" x2="1625.9" y2="1672.4"/>
<line class="st2" x1="1625.9" y1="1672.4" x2="1657.1" y2="1684.7"/>
<line class="st0" x1="1625.9" y1="1672.4" x2="1624.6" y2="1865.9"/>
<line class="st2" x1="1856.8" y1="1999.9" x2="1861.4" y2="1765.5"/>
<line class="st0" x1="1763.3" y1="1726.7" x2="1759.3" y2="1999.9"/>
<line class="st2" x1="2328.3" y1="1950.1" x2="2576.4" y2="1852.8"/>
<line class="st0" x1="2544.9" y1="1841.9" x2="2576.4" y2="1852.8"/>
<line class="st0" x1="2296.7" y1="1937.6" x2="2544.9" y2="1841.9"/>
<line class="st2" x1="2296.7" y1="1937.6" x2="2328.3" y2="1950.1"/>
<line class="st0" x1="2576.4" y1="1852.8" x2="2567.8" y2="1999.9"/>
<line class="st0" x1="2293.9" y1="1999.9" x2="2296.7" y2="1937.6"/>
<line class="st2" x1="2326.1" y1="1999.9" x2="2328.3" y2="1950.1"/>
<line class="st2" x1="2179.8" y1="1891.4" x2="2240.3" y2="1915.3"/>
<line class="st2" x1="2240.3" y1="1915.3" x2="2488.6" y2="1822.4"/>
<line class="st0" x1="2428.1" y1="1801.5" x2="2488.6" y2="1822.4"/>
<line class="st0" x1="2179.8" y1="1891.4" x2="2428.1" y2="1801.5"/>
<line class="st0" x1="2488.6" y1="1822.4" x2="2486.4" y2="1864.4"/>
<line class="st2" x1="2236.9" y1="1999.9" x2="2240.3" y2="1915.3"/>
<line class="st0" x1="2175.7" y1="1999.9" x2="2179.8" y2="1891.4"/>
<line class="st2" x1="2037.7" y1="1835.2" x2="2135.3" y2="1873.8"/>
<line class="st2" x1="2135.3" y1="1873.8" x2="2383.5" y2="1786.1"/>
<line class="st0" x1="2285.5" y1="1752.2" x2="2383.5" y2="1786.1"/>
<line class="st0" x1="2037.7" y1="1835.2" x2="2285.5" y2="1752.2"/>
<line class="st0" x1="2383.5" y1="1786.1" x2="2382" y2="1818.2"/>
<line class="st0" x1="2032.9" y1="1999.9" x2="2037.7" y2="1835.2"/>
<line class="st2" x1="1893.5" y1="1778.2" x2="1999.5" y2="1820.1"/>
<line class="st2" x1="1999.5" y1="1820.1" x2="2246.9" y2="1738.8"/>
<line class="st0" x1="2139.9" y1="1701.8" x2="2246.9" y2="1738.8"/>
<line class="st0" x1="1893.5" y1="1778.2" x2="2139.9" y2="1701.8"/>
<line class="st0" x1="2246.9" y1="1738.8" x2="2245.9" y2="1765.4"/>
<line class="st2" x1="1994.6" y1="1999.9" x2="1999.5" y2="1820.1"/>
<line class="st0" x1="1888.7" y1="1999.9" x2="1893.5" y2="1778.2"/>
<line class="st2" x1="2130.9" y1="1999.9" x2="2135.3" y2="1873.8"/>
<line class="st2" x1="1889.8" y1="1946.7" x2="1875.9" y2="1999.9"/>
</svg>
