<?xml version="1.0" encoding="utf-8"?>
<!-- Generator: Adobe Illustrator 21.0.2, SVG Export Plug-In . SVG Version: 6.00 Build 0)  -->
<svg version="1.1" id="Make2D::visible::lines::Default"
	 xmlns="http://www.w3.org/2000/svg" xmlns:xlink="http://www.w3.org/1999/xlink" x="0px" y="0px" viewBox="0 0 3000 2000"
	 style="enable-background:new 0 0 3000 2000;" xml:space="preserve">
<style type="text/css">
	.st0{fill:none;stroke:#000000;stroke-width:2;stroke-linecap:round;stroke-linejoin:round;}
	.st1{fill:none;stroke:#000000;stroke-width:3;stroke-linecap:round;stroke-linejoin:round;}
	.st2{fill:none;stroke:#000000;stroke-width:5;stroke-linecap:round;stroke-linejoin:round;}
</style>
<line class="st0" x1="2740.3" y1="1751.7" x2="2764.6" y2="1765.7"/>
<line class="st0" x1="2782" y1="1723.8" x2="2806.2" y2="1737.8"/>
<line class="st0" x1="2823.7" y1="1701.5" x2="2847.9" y2="1715.5"/>
<line class="st0" x1="2865.3" y1="1674.4" x2="2889.6" y2="1688.4"/>
<line class="st1" x1="1845.9" y1="988.8" x2="1845.9" y2="1655.6"/>
<line class="st1" x1="1870.2" y1="1669.6" x2="1845.9" y2="1655.6"/>
<line class="st2" x1="1870.2" y1="1002.8" x2="1870.2" y2="1669.6"/>
<line class="st1" x1="1870.2" y1="1002.8" x2="1889.1" y2="1013.7"/>
<line class="st1" x1="1889.1" y1="1680.6" x2="1889.1" y2="1013.7"/>
<line class="st1" x1="1913.4" y1="1694.6" x2="1889.1" y2="1680.6"/>
<line class="st2" x1="1913.4" y1="1027.7" x2="1913.4" y2="1694.6"/>
<line class="st1" x1="1913.4" y1="1027.7" x2="2007.7" y2="1082.2"/>
<line class="st1" x1="2007.7" y1="1749" x2="2007.7" y2="1082.2"/>
<line class="st1" x1="2031.9" y1="1763" x2="2007.7" y2="1749"/>
<line class="st2" x1="2031.9" y1="1096.2" x2="2031.9" y2="1763"/>
<line class="st1" x1="2031.9" y1="1096.2" x2="2050.9" y2="1107.1"/>
<line class="st1" x1="2050.9" y1="1773.9" x2="2050.9" y2="1107.1"/>
<line class="st1" x1="2075.1" y1="1787.9" x2="2050.9" y2="1773.9"/>
<line class="st0" x1="2075.1" y1="1121.1" x2="2075.1" y2="1787.9"/>
<line class="st1" x1="2075.1" y1="1121.1" x2="2094.1" y2="1132.1"/>
<line class="st1" x1="2094.1" y1="1798.9" x2="2094.1" y2="1132.1"/>
<line class="st1" x1="2118.3" y1="1812.9" x2="2094.1" y2="1798.9"/>
<line class="st2" x1="2118.3" y1="1146.1" x2="2118.3" y2="1812.9"/>
<line class="st1" x1="2118.3" y1="1146.1" x2="2137.3" y2="1157"/>
<line class="st1" x1="2137.3" y1="1823.8" x2="2137.3" y2="1157"/>
<line class="st1" x1="2161.5" y1="1837.8" x2="2137.3" y2="1823.8"/>
<line class="st2" x1="2161.5" y1="1171" x2="2161.5" y2="1837.8"/>
<line class="st1" x1="2161.5" y1="1171" x2="2180.5" y2="1181.9"/>
<line class="st1" x1="2180.5" y1="1848.8" x2="2180.5" y2="1181.9"/>
<line class="st1" x1="2204.7" y1="1862.8" x2="2180.5" y2="1848.8"/>
<line class="st2" x1="2204.7" y1="1195.9" x2="2204.7" y2="1862.8"/>
<line class="st1" x1="2204.7" y1="1195.9" x2="2223.7" y2="1206.9"/>
<line class="st1" x1="2223.7" y1="1873.7" x2="2223.7" y2="1206.9"/>
<line class="st1" x1="2247.9" y1="1887.7" x2="2223.7" y2="1873.7"/>
<line class="st2" x1="2247.9" y1="1220.9" x2="2247.9" y2="1887.7"/>
<line class="st1" x1="2247.9" y1="1220.9" x2="2266.9" y2="1231.8"/>
<line class="st1" x1="2266.9" y1="1522" x2="2266.9" y2="1231.8"/>
<line class="st1" x1="2291.1" y1="1536" x2="2266.9" y2="1522"/>
<line class="st2" x1="2291.1" y1="1245.8" x2="2291.1" y2="1536"/>
<line class="st1" x1="2291.1" y1="1245.8" x2="2310.1" y2="1256.8"/>
<line class="st1" x1="2310.1" y1="1513.9" x2="2310.1" y2="1256.8"/>
<line class="st1" x1="2334.3" y1="1527.9" x2="2310.1" y2="1513.9"/>
<line class="st2" x1="2334.3" y1="1270.8" x2="2334.3" y2="1527.9"/>
<line class="st1" x1="2334.3" y1="1270.8" x2="2353.2" y2="1281.7"/>
<line class="st1" x1="2353.2" y1="1495.6" x2="2353.2" y2="1281.7"/>
<line class="st1" x1="2377.5" y1="1509.6" x2="2353.2" y2="1495.6"/>
<line class="st2" x1="2377.5" y1="1295.7" x2="2377.5" y2="1509.6"/>
<line class="st1" x1="2377.5" y1="1295.7" x2="2404.1" y2="1311.1"/>
<line class="st1" x1="2404.1" y1="1986.3" x2="2404.1" y2="1311.1"/>
<line class="st2" x1="1819.3" y1="1648.7" x2="2404.1" y2="1986.3"/>
<line class="st1" x1="1819.3" y1="973.4" x2="1845.9" y2="988.8"/>
<line class="st0" x1="1845.9" y1="1655.6" x2="1870.2" y2="1641.6"/>
<line class="st0" x1="1955.1" y1="925.8" x2="1955.1" y2="953.8"/>
<line class="st0" x1="1889.1" y1="1680.6" x2="1913.4" y2="1666.6"/>
<line class="st0" x1="2050" y1="920.8" x2="2050" y2="948.8"/>
<line class="st0" x1="2007.7" y1="1749" x2="2031.9" y2="1735"/>
<line class="st0" x1="2444.8" y1="829.8" x2="2444.8" y2="857.8"/>
<line class="st0" x1="2050.9" y1="1773.9" x2="2075.1" y2="1759.9"/>
<line class="st0" x1="2440.7" y1="882" x2="2440.7" y2="910"/>
<line class="st0" x1="2094.1" y1="1798.9" x2="2118.3" y2="1784.9"/>
<line class="st0" x1="2438.5" y1="933.2" x2="2438.5" y2="961.2"/>
<line class="st0" x1="2137.3" y1="1823.8" x2="2161.5" y2="1809.8"/>
<line class="st0" x1="2439.2" y1="982.7" x2="2439.2" y2="1010.7"/>
<line class="st0" x1="2180.5" y1="1848.8" x2="2204.7" y2="1834.8"/>
<line class="st0" x1="2448.9" y1="1026.9" x2="2448.9" y2="1054.9"/>
<line class="st0" x1="2223.7" y1="1873.7" x2="2247.9" y2="1859.7"/>
<line class="st0" x1="2454" y1="1073.9" x2="2454" y2="1101.9"/>
<line class="st0" x1="2266.9" y1="1522" x2="2291.1" y2="1508"/>
<line class="st0" x1="2464.5" y1="1117.7" x2="2464.5" y2="1145.7"/>
<line class="st0" x1="2310.1" y1="1513.9" x2="2334.3" y2="1499.9"/>
<line class="st0" x1="2461.3" y1="1169.4" x2="2461.3" y2="1197.4"/>
<line class="st0" x1="2353.2" y1="1495.6" x2="2377.5" y2="1481.6"/>
<line class="st0" x1="2470.1" y1="1214.2" x2="2470.1" y2="1242.2"/>
<line class="st2" x1="2494.4" y1="1228.2" x2="2377.5" y2="1295.7"/>
<line class="st1" x1="2470.1" y1="1214.2" x2="2494.4" y2="1228.2"/>
<line class="st1" x1="2353.2" y1="1281.7" x2="2470.1" y2="1214.2"/>
<line class="st2" x1="2485.6" y1="1183.4" x2="2334.3" y2="1270.8"/>
<line class="st1" x1="2461.3" y1="1169.4" x2="2485.6" y2="1183.4"/>
<line class="st1" x1="2310.1" y1="1256.8" x2="2461.3" y2="1169.4"/>
<line class="st2" x1="2488.8" y1="1131.7" x2="2291.1" y2="1245.8"/>
<line class="st1" x1="2464.5" y1="1117.7" x2="2488.8" y2="1131.7"/>
<line class="st1" x1="2266.9" y1="1231.8" x2="2464.5" y2="1117.7"/>
<line class="st2" x1="2478.3" y1="1087.9" x2="2247.9" y2="1220.9"/>
<line class="st1" x1="2454" y1="1073.9" x2="2478.3" y2="1087.9"/>
<line class="st1" x1="2223.7" y1="1206.9" x2="2454" y2="1073.9"/>
<line class="st2" x1="2473.2" y1="1040.9" x2="2204.7" y2="1195.9"/>
<line class="st1" x1="2448.9" y1="1026.9" x2="2473.2" y2="1040.9"/>
<line class="st1" x1="2180.5" y1="1181.9" x2="2448.9" y2="1026.9"/>
<line class="st2" x1="2463.4" y1="996.7" x2="2161.5" y2="1171"/>
<line class="st1" x1="2439.2" y1="982.7" x2="2463.4" y2="996.7"/>
<line class="st1" x1="2137.3" y1="1157" x2="2439.2" y2="982.7"/>
<line class="st2" x1="2462.7" y1="947.2" x2="2118.3" y2="1146.1"/>
<line class="st1" x1="2438.5" y1="933.2" x2="2462.7" y2="947.2"/>
<line class="st1" x1="2094.1" y1="1132.1" x2="2438.5" y2="933.2"/>
<line class="st2" x1="2465" y1="896" x2="2075.1" y2="1121.1"/>
<line class="st1" x1="2440.7" y1="882" x2="2465" y2="896"/>
<line class="st1" x1="2050.9" y1="1107.1" x2="2440.7" y2="882"/>
<line class="st2" x1="2469.1" y1="843.8" x2="2031.9" y2="1096.2"/>
<line class="st1" x1="2444.8" y1="829.8" x2="2469.1" y2="843.8"/>
<line class="st1" x1="2007.7" y1="1082.2" x2="2444.8" y2="829.8"/>
<line class="st2" x1="2074.3" y1="934.8" x2="1913.4" y2="1027.7"/>
<line class="st1" x1="2050" y1="920.8" x2="2074.3" y2="934.8"/>
<line class="st1" x1="1889.1" y1="1013.7" x2="2050" y2="920.8"/>
<line class="st2" x1="1979.3" y1="939.8" x2="1870.2" y2="1002.8"/>
<line class="st1" x1="1955.1" y1="925.8" x2="1979.3" y2="939.8"/>
<line class="st1" x1="1845.9" y1="988.8" x2="1955.1" y2="925.8"/>
<line class="st1" x1="2077" y1="855.4" x2="2430.7" y2="651.2"/>
<line class="st2" x1="2101.3" y1="869.4" x2="2077" y2="855.4"/>
<line class="st2" x1="2455" y1="665.2" x2="2101.3" y2="869.4"/>
<line class="st1" x1="2110.5" y1="885.9" x2="2473.9" y2="676.1"/>
<line class="st2" x1="2134.8" y1="899.9" x2="2110.5" y2="885.9"/>
<line class="st2" x1="2498.2" y1="690.1" x2="2134.8" y2="899.9"/>
<line class="st1" x1="2736.2" y1="911" x2="2808.5" y2="869.2"/>
<line class="st2" x1="2760.4" y1="925" x2="2736.2" y2="911"/>
<line class="st2" x1="2832.7" y1="883.2" x2="2760.4" y2="925"/>
<line class="st1" x1="2730.8" y1="963.9" x2="2851.7" y2="894.2"/>
<line class="st2" x1="2755.1" y1="977.9" x2="2730.8" y2="963.9"/>
<line class="st2" x1="2875.9" y1="908.2" x2="2755.1" y2="977.9"/>
<line class="st1" x1="2721.2" y1="1019.4" x2="2894.9" y2="919.1"/>
<line class="st2" x1="2745.5" y1="1033.4" x2="2721.2" y2="1019.4"/>
<line class="st2" x1="2919.1" y1="933.1" x2="2745.5" y2="1033.4"/>
<line class="st1" x1="2712.4" y1="1074.3" x2="2938" y2="944.1"/>
<line class="st2" x1="2736.7" y1="1088.3" x2="2712.4" y2="1074.3"/>
<line class="st2" x1="2962.3" y1="958.1" x2="2736.7" y2="1088.3"/>
<line class="st2" x1="2764.6" y1="1348" x2="2740.3" y2="1362"/>
<line class="st2" x1="2740.3" y1="1779.7" x2="2740.3" y2="1362"/>
<line class="st1" x1="2764.6" y1="1765.7" x2="2740.3" y2="1779.7"/>
<line class="st1" x1="2764.6" y1="1348" x2="2764.6" y2="1765.7"/>
<line class="st2" x1="2806.2" y1="1366.3" x2="2782" y2="1380.3"/>
<line class="st2" x1="2782" y1="1751.8" x2="2782" y2="1380.3"/>
<line class="st1" x1="2806.2" y1="1737.8" x2="2782" y2="1751.8"/>
<line class="st1" x1="2806.2" y1="1366.3" x2="2806.2" y2="1737.8"/>
<line class="st2" x1="2847.9" y1="1379.8" x2="2823.7" y2="1393.8"/>
<line class="st2" x1="2823.7" y1="1729.5" x2="2823.7" y2="1393.8"/>
<line class="st1" x1="2847.9" y1="1715.5" x2="2823.7" y2="1729.5"/>
<line class="st1" x1="2847.9" y1="1379.8" x2="2847.9" y2="1715.5"/>
<line class="st2" x1="2889.6" y1="1390.5" x2="2865.3" y2="1404.5"/>
<line class="st2" x1="2865.3" y1="1702.4" x2="2865.3" y2="1404.5"/>
<line class="st1" x1="2889.6" y1="1688.4" x2="2865.3" y2="1702.4"/>
<line class="st1" x1="2889.6" y1="1390.5" x2="2889.6" y2="1688.4"/>
<line class="st1" x1="2404.1" y1="1311.1" x2="2988.9" y2="973.4"/>
<line class="st2" x1="2404.1" y1="1986.3" x2="2988.9" y2="1648.7"/>
<line class="st2" x1="2404.1" y1="635.8" x2="1819.3" y2="973.4"/>
<line class="st2" x1="1819.3" y1="1648.7" x2="1819.3" y2="973.4"/>
<line class="st2" x1="2938" y1="944.1" x2="2919.1" y2="933.1"/>
<line class="st2" x1="2894.9" y1="919.1" x2="2894.9" y2="947.1"/>
<line class="st2" x1="2894.9" y1="919.1" x2="2875.9" y2="908.2"/>
<line class="st2" x1="2851.7" y1="894.2" x2="2851.7" y2="922.2"/>
<line class="st2" x1="2851.7" y1="894.2" x2="2832.7" y2="883.2"/>
<line class="st2" x1="2808.5" y1="869.2" x2="2808.5" y2="897.2"/>
<line class="st2" x1="2808.5" y1="869.2" x2="2498.2" y2="690.1"/>
<line class="st2" x1="2473.9" y1="676.1" x2="2473.9" y2="704.1"/>
<line class="st2" x1="2473.9" y1="676.1" x2="2455" y2="665.2"/>
<line class="st2" x1="2430.7" y1="651.2" x2="2430.7" y2="679.2"/>
<line class="st2" x1="2430.7" y1="651.2" x2="2404.1" y2="635.8"/>
<line class="st2" x1="2988.9" y1="1648.7" x2="2988.9" y2="973.4"/>
<line class="st2" x1="2988.9" y1="973.4" x2="2962.3" y2="958.1"/>
<line class="st2" x1="2938" y1="944.1" x2="2938" y2="972.1"/>
</svg>
