<?xml version="1.0" encoding="utf-8"?>
<!-- Generator: Adobe Illustrator 21.0.2, SVG Export Plug-In . SVG Version: 6.00 Build 0)  -->
<svg version="1.1" id="Default" xmlns="http://www.w3.org/2000/svg" xmlns:xlink="http://www.w3.org/1999/xlink" x="0px" y="0px"
	 viewBox="0 0 3000 2000" style="enable-background:new 0 0 3000 2000;" xml:space="preserve">
<style type="text/css">
	.st0{fill:none;stroke:#000000;stroke-width:4;stroke-linecap:round;stroke-linejoin:round;}
</style>
<rect x="2773.7" y="1383.8" transform="matrix(0.5715 -0.8206 0.8206 0.5715 19.2674 2976.8621)" class="st0" width="172.3" height="172.3"/>
<rect x="2773.7" y="1383.8" transform="matrix(0.5715 -0.8206 0.8206 0.5715 19.2674 2976.8621)" class="st0" width="172.3" height="172.3"/>
<line class="st0" x1="2740" y1="1491.5" x2="2740" y2="1491.5"/>
<line class="st0" x1="2881.4" y1="1589.9" x2="2881.4" y2="1589.9"/>
<line class="st0" x1="2979.8" y1="1448.5" x2="2979.8" y2="1448.5"/>
<line class="st0" x1="2838.4" y1="1350" x2="2838.4" y2="1350"/>
<rect x="2794.9" y="926.4" transform="matrix(0.3008 -0.9537 0.9537 0.3008 1048.7198 3455.6006)" class="st0" width="172.3" height="172.3"/>
<rect x="2794.9" y="926.4" transform="matrix(0.3008 -0.9537 0.9537 0.3008 1048.7198 3455.6006)" class="st0" width="172.3" height="172.3"/>
<line class="st0" x1="2772.9" y1="1068.8" x2="2772.9" y2="1068.8"/>
<line class="st0" x1="2937.3" y1="1120.7" x2="2937.3" y2="1120.7"/>
<line class="st0" x1="2989.1" y1="956.3" x2="2989.1" y2="956.3"/>
<line class="st0" x1="2824.8" y1="904.5" x2="2824.8" y2="904.5"/>
<rect x="2623.9" y="1630.7" transform="matrix(0.1927 -0.9813 0.9813 0.1927 489.4982 4185.895)" class="st0" width="329.5" height="329.5"/>
<rect x="2623.9" y="1630.7" transform="matrix(0.1927 -0.9813 0.9813 0.1927 489.4982 4185.895)" class="st0" width="329.5" height="329.5"/>
<line class="st0" x1="2595.2" y1="1925.4" x2="2595.2" y2="1925.4"/>
<line class="st0" x1="2918.5" y1="1988.9" x2="2918.5" y2="1988.9"/>
<line class="st0" x1="2982" y1="1665.6" x2="2982" y2="1665.6"/>
<line class="st0" x1="2658.7" y1="1602.1" x2="2658.7" y2="1602.1"/>
<rect x="2319.9" y="1793.9" transform="matrix(0.9975 -7.067275e-02 7.067275e-02 0.9975 -126.8512 174.7442)" class="st0" width="172.3" height="172.3"/>
<rect x="2319.9" y="1793.9" transform="matrix(0.9975 -7.067275e-02 7.067275e-02 0.9975 -126.8512 174.7442)" class="st0" width="172.3" height="172.3"/>
<line class="st0" x1="2314" y1="1800.2" x2="2314" y2="1800.2"/>
<line class="st0" x1="2326.2" y1="1972.1" x2="2326.2" y2="1972.1"/>
<line class="st0" x1="2498.1" y1="1959.9" x2="2498.1" y2="1959.9"/>
<line class="st0" x1="2485.9" y1="1788" x2="2485.9" y2="1788"/>
<rect x="2332.3" y="1545.7" transform="matrix(0.914 -0.4058 0.4058 0.914 -454.0931 1121.7244)" class="st0" width="172.3" height="172.3"/>
<rect x="2332.3" y="1545.7" transform="matrix(0.914 -0.4058 0.4058 0.914 -454.0931 1121.7244)" class="st0" width="172.3" height="172.3"/>
<line class="st0" x1="2304.8" y1="1588" x2="2304.8" y2="1588"/>
<line class="st0" x1="2374.7" y1="1745.5" x2="2374.7" y2="1745.5"/>
<line class="st0" x1="2532.2" y1="1675.6" x2="2532.2" y2="1675.6"/>
<line class="st0" x1="2462.3" y1="1518.1" x2="2462.3" y2="1518.1"/>
<rect x="2074.3" y="892.7" transform="matrix(0.8905 -0.4549 0.4549 0.8905 -235.9403 1134.3767)" class="st0" width="329.5" height="329.5"/>
<rect x="2074.3" y="892.7" transform="matrix(0.8905 -0.4549 0.4549 0.8905 -235.9403 1134.3767)" class="st0" width="329.5" height="329.5"/>
<line class="st0" x1="2167.2" y1="1279.1" x2="2167.2" y2="1279.1"/>
<line class="st0" x1="2460.7" y1="1129.2" x2="2460.7" y2="1129.2"/>
<line class="st0" x1="2310.8" y1="835.8" x2="2310.8" y2="835.8"/>
<line class="st0" x1="2017.4" y1="985.7" x2="2017.4" y2="985.7"/>
<rect x="2666.5" y="1161.3" transform="matrix(0.9527 -0.3038 0.3038 0.9527 -248.8744 895.1846)" class="st0" width="172.3" height="172.3"/>
<rect x="2666.5" y="1161.3" transform="matrix(0.9527 -0.3038 0.3038 0.9527 -248.8744 895.1846)" class="st0" width="172.3" height="172.3"/>
<line class="st0" x1="2696.7" y1="1355.7" x2="2696.7" y2="1355.7"/>
<line class="st0" x1="2860.9" y1="1303.4" x2="2860.9" y2="1303.4"/>
<line class="st0" x1="2808.6" y1="1139.2" x2="2808.6" y2="1139.2"/>
<line class="st0" x1="2644.4" y1="1191.6" x2="2644.4" y2="1191.6"/>
<rect x="2210.9" y="1332.4" transform="matrix(0.3885 -0.9214 0.9214 0.3885 97.5013 2983.9973)" class="st0" width="172.3" height="172.3"/>
</svg>
